<svg xmlns="http://www.w3.org/2000/svg" viewBox="0 0 512 512">
  <defs>
    <linearGradient id="unicorn-gradient" x1="0%" y1="0%" x2="100%" y2="100%">
      <stop offset="0%" stop-color="#6f42c1" />
      <stop offset="100%" stop-color="#20c997" />
    </linearGradient>
  </defs>
  <path fill="url(#unicorn-gradient)" d="M464 128h-88c-13.3 0-24-10.7-24-24V16c0-8.8-7.2-16-16-16H80C53.5 0 32 21.5 32 48v416c0 26.5 21.5 48 48 48h352c26.5 0 48-21.5 48-48V144c0-8.8-7.2-16-16-16zM352 32.7L432.3 112H352V32.7zM464 464c0 8.8-7.2 16-16 16H80c-8.8 0-16-7.2-16-16V48c0-8.8 7.2-16 16-16h208v104c0 13.3 10.7 24 24 24h104v304z"/>
  <path fill="#6f42c1" d="M352 224c-17.7 0-32 14.3-32 32s14.3 32 32 32 32-14.3 32-32-14.3-32-32-32zm0 48c-8.8 0-16-7.2-16-16s7.2-16 16-16 16 7.2 16 16-7.2 16-16 16z"/>
  <path fill="#20c997" d="M304 288c-8.8 0-16 7.2-16 16v64c0 8.8 7.2 16 16 16h128c8.8 0 16-7.2 16-16v-64c0-8.8-7.2-16-16-16H304zm128 64H304v-32h128v32z"/>
  <path fill="#6f42c1" d="M104 256h16c4.4 0 8-3.6 8-8v-16c0-4.4-3.6-8-8-8h-16c-4.4 0-8 3.6-8 8v16c0 4.4 3.6 8 8 8z"/>
  <path fill="#6f42c1" d="M104 320h16c4.4 0 8-3.6 8-8v-16c0-4.4-3.6-8-8-8h-16c-4.4 0-8 3.6-8 8v16c0 4.4 3.6 8 8 8z"/>
  <path fill="#6f42c1" d="M104 384h16c4.4 0 8-3.6 8-8v-16c0-4.4-3.6-8-8-8h-16c-4.4 0-8 3.6-8 8v16c0 4.4 3.6 8 8 8z"/>
  <path fill="#20c997" d="M152 256h112c4.4 0 8-3.6 8-8v-16c0-4.4-3.6-8-8-8H152c-4.4 0-8 3.6-8 8v16c0 4.4 3.6 8 8 8z"/>
  <path fill="#20c997" d="M152 320h112c4.4 0 8-3.6 8-8v-16c0-4.4-3.6-8-8-8H152c-4.4 0-8 3.6-8 8v16c0 4.4 3.6 8 8 8z"/>
  <path fill="#20c997" d="M152 384h112c4.4 0 8-3.6 8-8v-16c0-4.4-3.6-8-8-8H152c-4.4 0-8 3.6-8 8v16c0 4.4 3.6 8 8 8z"/>
  <path fill="#6f42c1" d="M380 136c0-6.6-5.4-12-12-12h-84c-6.6 0-12 5.4-12 12v84c0 6.6 5.4 12 12 12h84c6.6 0 12-5.4 12-12v-84zm-24 72h-60v-60h60v60z"/>
</svg>